<svg xmlns="http://www.w3.org/2000/svg" viewBox="0 0 512 512" role="img" aria-labelledby="title desc">
  <title id="title">Hiddify Steam Deck VPN icon</title>
  <desc id="desc">Steam Deck inspired mark with Hiddify logo inside a circular lens.</desc>

  <rect width="512" height="512" fill="#ffffff"/>

  <path
    d="M184 20
       A236 236 0 0 1 184 492"
    fill="none"
    stroke="#000000"
    stroke-width="22"
    stroke-linecap="butt"/>

  <path
    d="M184 93
       A163 163 0 0 1 184 419"
    fill="none"
    stroke="#000000"
    stroke-width="22"
    stroke-linecap="butt"/>

  <circle
    cx="190"
    cy="255"
    r="133"
    fill="#ffffff"
    stroke="#000000"
    stroke-width="17"/>

  <g fill="#120104">
    <path d="M94 302v-41c0-5 3-10 8-12l27-16c6-4 14 1 14 8v66h13c5 0 9 4 9 9v21H111c-9 0-17-8-17-17v-18Z"/>
    <path d="M174 323v-76c0-5 3-10 8-12l42-25c6-4 14 1 14 8v102c0 9-8 17-17 17h-33c-8 0-14-6-14-14Z"/>
    <rect x="253" y="240" width="44" height="97" rx="7"/>
    <path d="M261 180h28c5 0 8 4 8 8v39h-44v-31c0-5 3-10 8-16Z"/>
  </g>
</svg>
